<?xml version="1.1"  encoding="iso-8859-1"?>
<svg version="1.1" xmlns="http://www.w3.org/2000/svg" xmlns:xlink="http://www.w3.org/1999/xlink" x="0px" y="0px"
    viewBox="0 0 60 60"
 preserveAspectRatio="xMidYMid meet">
<g transform="translate(0.000000,500.000000) scale(0.100000,-0.100000)"
fill="#000000" stroke="none">
<path d="M0 2500 l0 -2500 5120 0 5120 0 0 2500 0 2500 -5120 0 -5120 0 0
-2500z m5605 989 c28 -64 36 -68 96 -44 12 4 21 -7 37 -50 12 -31 22 -58 22
-60 0 -1 -16 -6 -35 -9 -19 -4 -37 -11 -40 -16 -3 -5 1 -33 10 -62 8 -28 15
-57 15 -64 0 -13 -70 -38 -79 -28 -3 3 -12 33 -21 67 -16 66 -14 65 -85 53
l-41 -7 -12 46 c-18 69 -17 72 33 79 25 4 45 11 45 17 0 5 -9 32 -20 61 -11
29 -20 56 -20 60 0 6 22 13 56 17 6 0 24 -26 39 -60z m175 31 c9 -21 18 -29
29 -25 10 3 21 -3 28 -15 11 -16 10 -21 -3 -28 -13 -7 -14 -13 -5 -30 13 -25
14 -52 2 -52 -5 0 -14 14 -21 31 -10 22 -18 29 -32 26 -28 -8 -45 30 -22 48
17 12 17 14 1 38 -15 23 -14 37 3 37 4 0 13 -14 20 -30z m-1010 -49 c0 -10 9
-21 20 -24 26 -7 26 -27 0 -27 -13 0 -22 -9 -26 -25 -7 -28 -24 -24 -24 6 0
10 -7 19 -15 19 -8 0 -15 7 -15 15 0 8 9 15 20 15 13 0 20 7 20 20 0 11 5 20
10 20 6 0 10 -8 10 -19z m-168 -86 c-4 -42 -3 -45 19 -45 38 0 53 -14 45 -44
-6 -23 -12 -26 -46 -26 -38 0 -40 -2 -40 -29 0 -47 -10 -61 -41 -61 -28 0 -28
0 -22 50 l6 50 -38 0 c-34 0 -37 2 -31 23 3 12 6 28 6 35 0 9 11 13 37 10 37
-3 38 -2 47 40 8 37 12 42 36 42 27 0 27 -1 22 -45z m392 14 c3 -17 6 -49 6
-70 l0 -39 65 0 c55 0 65 -3 65 -17 0 -10 3 -35 6 -55 l7 -38 -67 0 -66 0 0
-75 0 -75 -55 0 -54 0 -3 73 -3 72 -62 3 -63 3 0 54 0 55 65 0 65 0 0 70 0 70
44 0 c41 0 44 -2 50 -31z m949 -36 c-8 -3 -9 -12 -3 -29 5 -13 6 -24 1 -24 -5
0 -11 9 -14 21 -3 12 -10 18 -15 15 -6 -3 -12 1 -16 9 -3 8 -1 17 4 20 7 4 6
13 0 25 -18 33 -11 32 22 -1 20 -19 28 -34 21 -36z m-567 -28 c4 -8 12 -15 20
-15 8 0 14 -4 14 -10 0 -5 -4 -10 -10 -10 -5 0 -10 -9 -10 -20 0 -26 -16 -26
-23 0 -3 11 -11 19 -17 18 -7 -2 -15 3 -17 10 -3 6 3 12 12 12 11 0 15 5 11
15 -3 8 -1 15 5 15 5 0 12 -7 15 -15z m-996 -65 c0 -11 5 -20 10 -20 6 0 10
-7 10 -15 0 -8 -7 -15 -15 -15 -9 0 -18 -7 -21 -15 -9 -22 -24 -18 -24 5 0 11
-4 20 -10 20 -5 0 -10 7 -10 15 0 8 6 15 14 15 8 0 16 7 20 15 8 22 26 18 26
-5z m1473 -73 c9 -35 11 -38 37 -32 25 5 28 3 32 -25 4 -26 1 -33 -19 -41 -26
-10 -26 -10 -14 -61 7 -29 5 -38 -6 -42 -27 -11 -32 -6 -35 32 -3 35 -5 37
-35 34 -21 -1 -33 2 -33 10 0 7 -3 22 -6 33 -4 16 2 23 25 32 l31 11 -14 40
c-8 22 -12 43 -8 46 15 16 37 -2 45 -37z m-311 -29 c2 -17 11 -24 31 -26 33
-4 38 -37 6 -45 -17 -5 -21 -12 -17 -36 4 -24 1 -31 -13 -31 -10 0 -19 10 -23
25 -5 18 -13 25 -30 25 -35 0 -42 36 -9 45 22 5 24 10 19 35 -4 25 -2 30 14
30 12 0 20 -8 22 -22z m-240 -30 c3 -43 3 -43 43 -43 42 0 53 -11 54 -52 1
-19 -5 -22 -41 -25 l-43 -3 3 -47 c3 -35 0 -48 -10 -48 -7 0 -23 -3 -35 -6
-20 -6 -22 -2 -25 42 l-3 49 -41 -3 c-39 -2 -42 0 -48 30 -3 17 -4 33 -2 35 2
3 23 7 46 10 l42 6 -6 40 c-7 44 2 57 41 57 19 0 22 -6 25 -42z m-612 -39 c0
-12 7 -19 20 -19 13 0 20 -7 20 -20 0 -13 -7 -20 -20 -20 -15 0 -20 -7 -20
-25 0 -18 -5 -25 -20 -25 -15 0 -20 7 -20 25 0 18 -5 25 -20 25 -13 0 -20 7
-20 20 0 13 7 20 20 20 12 0 22 9 26 24 7 29 34 24 34 -5z m1350 -6 c0 -38 14
-60 26 -42 6 10 10 3 15 -21 5 -24 3 -40 -6 -50 -8 -8 -15 -37 -17 -64 -2 -27
-8 -51 -14 -53 -7 -2 -12 2 -11 9 2 53 -3 69 -22 63 -15 -4 -20 1 -25 26 -5
26 -2 35 15 47 18 13 20 21 15 63 -6 40 -4 49 9 49 10 0 15 -10 15 -27z
m-1615 -14 c1 -2 0 -35 -4 -72 -4 -38 -5 -70 -2 -71 3 -2 35 -7 70 -11 l63 -7
-6 -30 c-3 -17 -6 -43 -6 -58 0 -26 -1 -27 -67 -26 l-68 1 -3 -67 -3 -68 -34
0 c-61 0 -65 5 -65 85 l0 73 -30 6 c-16 3 -44 9 -61 12 l-31 6 7 57 c4 31 8
57 9 58 1 1 19 -2 41 -7 78 -18 77 -20 90 84 l7 48 44 -5 c25 -2 47 -6 49 -8z
m1413 -152 c29 4 31 -36 2 -44 -15 -4 -20 -14 -20 -39 0 -24 -5 -34 -15 -34
-9 0 -15 9 -15 25 0 18 -5 25 -20 25 -27 0 -27 37 1 45 16 6 19 12 14 32 -4
17 -1 29 7 34 9 6 15 1 18 -19 4 -21 11 -26 28 -25z m-968 -33 l0 -44 45 0 45
0 0 -40 0 -40 -45 0 -45 0 0 -50 0 -50 -40 0 -40 0 0 50 0 50 -45 0 -45 0 0
40 0 40 45 0 44 0 7 48 c6 47 6 48 40 44 33 -4 34 -6 34 -48z m270 15 c0 -28
3 -31 25 -27 19 4 25 1 25 -13 0 -11 -9 -19 -22 -21 -17 -2 -24 -11 -26 -30
-4 -36 -32 -38 -32 -3 0 21 -5 25 -30 25 -23 0 -30 4 -30 20 0 15 7 20 25 20
20 0 25 5 25 24 0 22 10 33 33 35 4 1 7 -13 7 -30z m440 -40 l0 -61 33 7 c17
4 42 9 55 12 21 5 22 2 22 -50 0 -54 -1 -56 -32 -62 -66 -13 -65 -12 -73 -80
-6 -58 -9 -65 -28 -65 -12 0 -32 -3 -44 -6 -22 -6 -23 -4 -23 56 l0 63 -60 -7
-60 -7 0 55 0 55 61 7 61 7 -6 63 c-7 69 -11 64 59 77 32 6 35 -1 35 -64z
m326 -199 c-4 -49 -5 -90 -1 -90 3 0 22 7 42 15 20 8 38 14 40 11 2 -2 -4 -33
-13 -69 -15 -63 -17 -65 -61 -82 -47 -18 -47 -18 -88 -129 -14 -37 -25 -51
-51 -62 -18 -8 -37 -14 -42 -14 -5 0 2 32 16 70 14 39 22 73 19 76 -4 5 -47
-4 -111 -23 -17 -5 -18 -1 -12 43 13 86 16 91 49 98 115 23 115 22 118 143 l2
72 41 15 c23 8 45 15 50 15 5 1 5 -38 2 -89z m-706 -65 c0 -79 3 -103 13 -101
6 3 49 7 95 10 l82 6 0 -54 c0 -97 -5 -102 -109 -110 l-90 -7 -6 -57 c-13
-118 -7 -110 -91 -114 l-74 -3 0 83 0 82 -95 0 -95 0 0 75 0 75 78 0 c127 0
122 -4 122 111 l0 98 78 4 c42 1 80 4 85 5 4 1 7 -45 7 -103z m-522 22 c3 -21
9 -27 28 -27 19 0 24 -5 24 -26 0 -20 -4 -25 -22 -22 -19 2 -24 -2 -26 -25 -4
-35 -33 -33 -42 3 -4 15 -15 26 -30 30 -35 8 -34 45 0 45 18 0 25 6 26 20 1
11 2 24 3 28 3 21 36 -1 39 -26z m-238 -97 c5 -45 5 -45 48 -48 41 -3 42 -4
42 -38 0 -34 0 -34 -42 -32 l-42 3 3 -37 c2 -36 1 -38 -27 -38 -27 0 -30 3
-36 44 -7 41 -9 44 -45 50 -34 5 -39 10 -43 37 -5 30 -4 30 36 27 l41 -2 -3
42 -4 43 34 -3 c31 -3 33 -5 38 -48z m1128 -101 c14 0 13 -3 -5 -16 -13 -8
-23 -22 -23 -29 0 -8 -4 -14 -10 -14 -5 0 -10 6 -10 14 0 8 -8 17 -17 19 -16
4 -15 6 4 12 11 4 24 17 28 28 6 19 8 20 12 5 2 -10 12 -18 21 -19z m-858
-174 l0 -45 50 0 c47 0 50 -2 50 -25 0 -39 -2 -40 -49 -37 l-43 4 4 -42 4 -41
-36 3 c-32 3 -35 6 -40 38 -5 32 -8 35 -50 43 -53 11 -47 6 -55 40 l-8 29 49
-3 49 -3 -3 42 -4 42 41 0 41 0 0 -45z m696 -16 c-6 -30 -5 -31 24 -27 18 3
30 0 30 -7 0 -18 -22 -35 -46 -35 -15 0 -25 -9 -33 -30 -7 -20 -17 -30 -31
-30 -17 0 -19 4 -14 26 6 25 5 26 -25 22 -28 -4 -32 -2 -29 16 2 16 11 22 36
24 27 3 34 8 39 32 3 19 13 30 27 33 11 2 23 5 25 6 2 0 1 -13 -3 -30z m189
-55 c-20 -48 -20 -47 21 -39 20 3 34 3 32 -2 -26 -54 -33 -62 -72 -72 -30 -8
-48 -21 -67 -50 -16 -23 -37 -40 -53 -43 -30 -6 -31 -3 -11 32 21 36 19 39
-22 29 -21 -4 -39 -6 -42 -4 -2 3 2 18 9 35 8 20 22 32 39 35 65 14 74 20 88
62 14 41 25 50 71 52 22 1 22 0 7 -35z m-529 -89 c-6 -23 -3 -25 24 -25 40 0
40 -26 -1 -35 -19 -4 -33 -15 -36 -26 -7 -26 -43 -25 -43 1 0 16 -7 20 -30 20
-22 0 -28 4 -24 15 4 8 17 15 30 15 14 0 27 7 29 15 3 8 7 22 10 30 2 8 14 15
26 15 18 0 20 -4 15 -25z m-166 -100 c0 -8 9 -15 20 -15 11 0 20 -4 20 -10 0
-5 -9 -10 -20 -10 -11 0 -20 -7 -20 -15 0 -8 -7 -15 -15 -15 -8 0 -15 7 -15
15 0 8 -9 15 -20 15 -11 0 -20 5 -20 10 0 6 9 10 20 10 11 0 20 7 20 15 0 8 7
15 15 15 8 0 15 -7 15 -15z m335 -25 l-17 -32 46 3 c43 4 45 3 32 -16 -7 -11
-31 -24 -54 -30 -22 -5 -52 -22 -66 -37 -14 -16 -34 -28 -46 -28 -21 0 -27 14
-10 25 22 14 8 25 -31 25 -33 0 -40 3 -37 17 2 11 19 20 53 27 43 10 50 15 58
43 8 27 15 32 46 35 20 2 37 2 39 1 2 0 -4 -16 -13 -33z m-332 -291 c15 -24 1
-49 -26 -49 -35 0 -52 23 -37 50 13 24 47 24 63 -1z m147 -38 l0 -50 54 6 c46
5 57 2 75 -16 19 -19 21 -32 21 -137 l0 -115 -36 3 -36 3 -2 90 c-1 86 -2 90
-24 93 -42 6 -52 -13 -52 -104 l0 -84 -35 0 -35 0 0 180 0 180 35 0 35 0 0
-49z m840 -131 l0 -180 -40 0 -40 0 0 180 0 180 40 0 40 0 0 -180z m168 133
c3 -40 5 -43 33 -43 27 0 29 -2 29 -40 0 -38 -2 -40 -30 -40 -30 0 -30 0 -30
-60 l0 -59 29 5 c26 5 29 3 33 -26 4 -26 1 -33 -19 -41 -40 -15 -82 -10 -103
11 -16 16 -20 33 -20 95 0 73 -1 75 -25 75 -22 0 -25 4 -25 40 0 36 3 40 25
40 23 0 25 4 25 46 l0 45 38 -3 c36 -3 37 -4 40 -45z m192 -2 l0 -48 48 5 c37
3 53 0 72 -16 24 -19 25 -25 25 -134 l0 -113 -37 -3 -38 -3 0 96 0 96 -32 -3
-33 -3 -3 -92 -3 -93 -39 0 -40 0 0 180 0 180 40 0 40 0 0 -49z m-2266 -58
c17 -51 33 -93 36 -93 4 0 20 43 35 95 l29 95 58 0 58 0 0 -170 0 -170 -35 0
-35 0 0 117 c0 69 -4 113 -9 108 -5 -6 -24 -56 -42 -112 -31 -95 -35 -103 -59
-103 -24 0 -28 8 -59 103 -18 56 -37 106 -42 112 -5 5 -9 -39 -9 -108 l0 -117
-35 0 -35 0 0 170 0 171 57 -3 57 -3 30 -92z m636 51 c0 -41 2 -45 20 -39 36
11 100 -5 116 -30 21 -32 28 -112 14 -163 -9 -36 -18 -46 -47 -58 -23 -10 -46
-13 -67 -7 -17 4 -48 6 -68 4 l-38 -3 0 171 0 171 35 0 c35 0 35 0 35 -46z
m-186 -48 c38 -16 56 -55 56 -123 0 -72 -22 -110 -70 -123 -58 -16 -115 -4
-140 27 -29 37 -29 159 0 196 29 37 96 47 154 23z m999 3 c32 -15 47 -49 47
-109 l0 -50 -77 0 c-72 -1 -77 -2 -58 -16 15 -11 33 -14 66 -10 45 6 47 5 58
-24 9 -28 8 -32 -15 -40 -35 -14 -114 -12 -144 3 -71 35 -80 207 -13 246 24
14 106 14 136 0z m292 -19 c24 -22 25 -29 25 -130 l0 -107 -86 -1 c-83 -1 -88
1 -115 28 -35 35 -38 76 -8 114 20 25 27 27 80 24 45 -2 55 0 47 10 -6 7 -33
12 -64 12 -56 0 -58 1 -68 42 -7 32 8 37 101 34 50 -1 67 -7 88 -26z m-815
-105 l0 -125 -35 0 -35 0 0 125 0 125 35 0 35 0 0 -125z"/>
<path d="M4627 1523 c-4 -3 -7 -30 -7 -59 0 -54 8 -64 50 -64 39 0 55 83 22
113 -19 17 -53 22 -65 10z"/>
<path d="M4339 1514 c-18 -22 -18 -92 1 -104 43 -27 80 0 80 59 0 52 -51 81
-81 45z"/>
<path d="M5335 1510 c-4 -6 8 -10 30 -10 22 0 34 4 30 10 -3 6 -17 10 -30 10
-13 0 -27 -4 -30 -10z"/>
<path d="M5608 1428 c-10 -6 -10 -10 2 -18 8 -5 21 -8 28 -5 8 3 18 5 23 5 5
0 9 4 9 9 0 12 -46 20 -62 9z"/>
</g>
</svg>
